<svg xmlns="http://www.w3.org/2000/svg" width="200" height="200"><path d="M101 21.119c-8.585 1.383-19.573 7.294-26.58 14.301-19.794 19.795-19.944 50.747-.343 70.902l5.78 5.945-19.428 28.014C49.743 155.689 41 169.113 41 170.112c0 2.343 3.528 4.223 6.516 3.473 1.65-.414 7.656-8.255 20.556-26.835 10.025-14.437 18.87-27 19.656-27.916 1.27-1.48 1.802-1.511 4.765-.272 1.835.766 6.524 1.888 10.421 2.493 32.523 5.046 62.071-24.583 57.15-57.305-3.19-21.208-21.163-39.462-42.064-42.721-7.401-1.154-9.333-1.144-17 .09m-3.513 10.623C85.398 36.059 78.119 42.577 72.626 54c-2.918 6.067-3.126 7.232-3.126 17.5 0 10.249.212 11.444 3.11 17.5 4.557 9.523 10.139 15.273 19.153 19.728 7.378 3.646 7.988 3.772 18.237 3.772 10.249 0 10.859-.126 18.237-3.772 9.014-4.455 14.596-10.205 19.153-19.728 2.898-6.056 3.11-7.251 3.11-17.5 0-10.249-.212-11.444-3.11-17.5-4.542-9.492-10.144-15.275-19.07-19.686-6.775-3.349-8.487-3.764-16.685-4.047-6.876-.238-10.375.127-14.148 1.475m24.361 18.139c-4.806 3.048-6.588 5.779-4.883 7.484.708.708 2.107-.012 4.465-2.297 4.868-4.719 10.132-4.878 12.79-.388l1.883 3.181-4.544 2.01c-6.181 2.734-9.559 6.558-9.559 10.82 0 4.537 3.728 8.31 8.205 8.305 4.005-.004 9.377-3.104 10.273-5.927C141.146 70.964 143 70.178 143 72c0 .55.9 1 2 1s2-.441 2-.98c0-1.768-9.036-21.402-10.692-23.232-2.559-2.828-9.051-2.337-14.46 1.093m-23.691-.999c-1.056.669.061 4.056 5.25 15.907C107.033 73.07 110 80.957 110 82.316c0 2.509-1.62 3.684-5.082 3.684-1.232 0-1.918.694-1.918 1.941 0 2.789 1.549 3.363 5.529 2.05 8.591-2.836 8.558-6.665-.235-26.706-3.688-8.407-7.176-15.278-7.75-15.27-.574.009-1.648.399-2.387.867m34.448 14.384c-5.402 3.099-6.882 5.543-5.292 8.743 3.578 7.204 14.325-.209 11.428-7.883-.649-1.719-1.418-3.119-1.71-3.11-.292.009-2.284 1.022-4.426 2.25" fill="undefined" fill-rule="evenodd"/></svg>